<svg width="20" height="20" viewBox="0 0 22 22" fill="none" xmlns="http://www.w3.org/2000/svg">
<g id="&#240;&#159;&#166;&#134; icon &#34;image&#34;">
<g id="Group">
<path id="Vector" d="M20.7049 15.9633L17.5742 8.65164C16.514 6.17107 14.5635 6.07105 13.2532 8.43159L11.3628 11.8424C10.4026 13.5728 8.61218 13.7228 7.3719 12.1725L7.15185 11.8924C5.86155 10.272 4.04113 10.4721 3.11092 12.3225L1.39052 15.7733C0.180245 18.1738 1.93065 21.0045 4.61126 21.0045H17.3742C19.9748 21.0045 21.7252 18.3539 20.7049 15.9633Z" stroke="white" stroke-width="2" strokeLinecap="round" stroke-linejoin="round"/>
<path id="Vector_2" d="M5.99161 7.00138C7.64884 7.00138 8.9923 5.65792 8.9923 4.00069C8.9923 2.34346 7.64884 1 5.99161 1C4.33438 1 2.99092 2.34346 2.99092 4.00069C2.99092 5.65792 4.33438 7.00138 5.99161 7.00138Z" stroke="white" stroke-width="2" strokeLinecap="round" stroke-linejoin="round"/>
</g>
</g>
</svg>
